<svg preserveAspectRatio="none" overflow="visible" style="display: block;" width="23" height="23" viewBox="0 0 23 23" fill="none" xmlns="http://www.w3.org/2000/svg">
<path id="Vector" fill-rule="evenodd" clip-rule="evenodd" d="M11.5 0C4.84022 0 0 5.97898 0 13.0333C0 18.2957 3.43569 23 8.03416 23C9.70958 23 11.2521 22.3734 12.5197 21.3271C13.6569 20.3882 15.1759 19.9507 16.5907 19.9507C20.2814 19.9507 23 16.2784 23 12.1256C23 6.07967 18.9295 0 11.5 0ZM16.6111 10.4778C16.6111 13.3006 14.3229 15.5889 11.5 15.5889C8.67713 15.5889 6.38889 13.3006 6.38889 10.4778C6.38889 7.65491 8.67713 5.36667 11.5 5.36667C14.3229 5.36667 16.6111 7.65491 16.6111 10.4778ZM11.5 7.02778C11.2628 7.02778 11.0353 7.12201 10.8675 7.28975C10.6998 7.4575 10.6056 7.685 10.6056 7.92222C10.6056 8.15944 10.6998 8.38695 10.8675 8.55469C11.0353 8.72243 11.2628 8.81667 11.5 8.81667C11.9406 8.81667 12.3631 8.99168 12.6746 9.30319C12.9861 9.61471 13.1611 10.0372 13.1611 10.4778C13.1611 10.5952 13.1842 10.7115 13.2292 10.8201C13.2741 10.9286 13.34 11.0272 13.4231 11.1102C13.5061 11.1933 13.6047 11.2592 13.7133 11.3041C13.8218 11.3491 13.9381 11.3722 14.0556 11.3722C14.173 11.3722 14.2893 11.3491 14.3978 11.3041C14.5064 11.2592 14.605 11.1933 14.688 11.1102C14.7711 11.0272 14.837 10.9286 14.8819 10.8201C14.9269 10.7115 14.95 10.5952 14.95 10.4778C14.95 9.56278 14.5865 8.68526 13.9395 8.03826C13.2925 7.39126 12.415 7.02778 11.5 7.02778Z" fill="#4AC364"/>
</svg>
