<svg preserveAspectRatio="none" overflow="visible" style="display: block;" width="119.953" height="119.953" viewBox="0 0 119.953 119.953" fill="none" xmlns="http://www.w3.org/2000/svg">
<g id="famicons:man-outline" clip-path="url(#clip0_0_31)">
<g id="Vector">
<mask id="path-1-inside-1_0_31" fill="white">
<path d="M59.9773 73.5891L56.8231 96.7092L59.9773 107.653C59.968 108.445 60.1207 109.23 60.4265 109.964C60.7323 110.697 61.1849 111.364 61.7579 111.924C62.3308 112.484 63.0125 112.926 63.7628 113.225C64.5131 113.524 65.317 113.673 66.1272 113.664C66.9374 113.673 67.7413 113.524 68.4916 113.225C69.2419 112.926 69.9236 112.484 70.4965 111.924C71.0694 111.364 71.5221 110.697 71.8279 109.964C72.1336 109.23 72.2864 108.445 72.2771 107.653V37.5217"/>
<path d="M47.6774 41.5292V107.653C47.6682 108.445 47.8209 109.23 48.1267 109.964C48.4325 110.697 48.8851 111.364 49.4581 111.924C50.031 112.484 50.7126 112.926 51.463 113.225C52.2133 113.524 53.0172 113.673 53.8274 113.664C54.6376 113.673 55.4414 113.524 56.1918 113.225C56.9421 112.926 57.6237 112.484 58.1967 111.924C58.7696 111.364 59.2222 110.697 59.528 109.964C59.8338 109.23 59.9865 108.445 59.9773 107.653"/>
<path d="M54.9308 108.423L47.6775 59.5629C47.6871 60.3549 47.5346 61.1408 47.2289 61.8743C46.9233 62.6079 46.4707 63.2743 45.8977 63.8344C45.3247 64.3945 44.6429 64.8369 43.8924 65.1357C43.1419 65.4344 42.3379 65.5835 41.5276 65.5741C40.7173 65.5835 39.9132 65.4344 39.1628 65.1357C38.4123 64.8369 37.7305 64.3945 37.1575 63.8344C36.5845 63.2743 36.1318 62.6079 35.8262 61.8743C35.5205 61.1408 35.368 60.3549 35.3777 59.5629V37.5217C35.3777 34.3331 36.6735 31.2751 38.9802 29.0205C41.2869 26.7658 44.4154 25.4992 47.6775 25.4992H72.2771C75.5392 25.4992 78.6678 26.7658 80.9744 29.0205C83.2811 31.2751 84.577 34.3331 84.577 37.5217V59.5629C84.5866 60.3549 84.4341 61.1408 84.1284 61.8743C83.8228 62.6079 83.3701 63.2743 82.7971 63.8344C82.2241 64.3945 81.5423 64.8369 80.7919 65.1357C80.0414 65.4344 79.2373 65.5835 78.427 65.5741C77.6168 65.5835 76.8127 65.4344 76.0622 65.1357C75.3118 64.8369 74.63 64.3945 74.057 63.8344C73.484 63.2743 73.0313 62.6079 72.7257 61.8743C72.42 61.1408 72.2675 60.3549 72.2771 59.5629L72.2771 37.5217"/>
</mask>
<path d="M59.9773 73.5891L56.8231 96.7092L59.9773 107.653C59.968 108.445 60.1207 109.23 60.4265 109.964C60.7323 110.697 61.1849 111.364 61.7579 111.924C62.3308 112.484 63.0125 112.926 63.7628 113.225C64.5131 113.524 65.317 113.673 66.1272 113.664C66.9374 113.673 67.7413 113.524 68.4916 113.225C69.2419 112.926 69.9236 112.484 70.4965 111.924C71.0694 111.364 71.5221 110.697 71.8279 109.964C72.1336 109.23 72.2864 108.445 72.2771 107.653V37.5217" fill="#4AC364"/>
<path d="M47.6774 41.5292V107.653C47.6682 108.445 47.8209 109.23 48.1267 109.964C48.4325 110.697 48.8851 111.364 49.4581 111.924C50.031 112.484 50.7126 112.926 51.463 113.225C52.2133 113.524 53.0172 113.673 53.8274 113.664C54.6376 113.673 55.4414 113.524 56.1918 113.225C56.9421 112.926 57.6237 112.484 58.1967 111.924C58.7696 111.364 59.2222 110.697 59.528 109.964C59.8338 109.23 59.9865 108.445 59.9773 107.653" fill="#4AC364"/>
<path d="M54.9308 108.423L47.6775 59.5629C47.6871 60.3549 47.5346 61.1408 47.2289 61.8743C46.9233 62.6079 46.4707 63.2743 45.8977 63.8344C45.3247 64.3945 44.6429 64.8369 43.8924 65.1357C43.1419 65.4344 42.3379 65.5835 41.5276 65.5741C40.7173 65.5835 39.9132 65.4344 39.1628 65.1357C38.4123 64.8369 37.7305 64.3945 37.1575 63.8344C36.5845 63.2743 36.1318 62.6079 35.8262 61.8743C35.5205 61.1408 35.368 60.3549 35.3777 59.5629V37.5217C35.3777 34.3331 36.6735 31.2751 38.9802 29.0205C41.2869 26.7658 44.4154 25.4992 47.6775 25.4992H72.2771C75.5392 25.4992 78.6678 26.7658 80.9744 29.0205C83.2811 31.2751 84.577 34.3331 84.577 37.5217V59.5629C84.5866 60.3549 84.4341 61.1408 84.1284 61.8743C83.8228 62.6079 83.3701 63.2743 82.7971 63.8344C82.2241 64.3945 81.5423 64.8369 80.7919 65.1357C80.0414 65.4344 79.2373 65.5835 78.427 65.5741C77.6168 65.5835 76.8127 65.4344 76.0622 65.1357C75.3118 64.8369 74.63 64.3945 74.057 63.8344C73.484 63.2743 73.0313 62.6079 72.7257 61.8743C72.42 61.1408 72.2675 60.3549 72.2771 59.5629L72.2771 37.5217" fill="#4AC364"/>
<path d="M49.7266 41.307C49.6038 40.1753 48.587 39.3573 47.4553 39.4801C46.3236 39.6028 45.5056 40.6196 45.6283 41.7513L47.6774 41.5292L49.7266 41.307ZM52.8817 108.646C53.0044 109.777 54.0213 110.595 55.153 110.473C56.2847 110.35 57.1026 109.333 56.9799 108.201L54.9308 108.423L52.8817 108.646ZM47.6774 41.5292L45.6283 41.7513L52.8817 108.646L54.9308 108.423L56.9799 108.201L49.7266 41.307L47.6774 41.5292ZM64.0617 74.1463C64.3694 71.8905 62.7902 69.8124 60.5345 69.5047C58.2787 69.1969 56.2006 70.7761 55.8929 73.0319L59.9773 73.5891L64.0617 74.1463ZM59.9773 107.653L64.0992 107.604L64.0927 107.047L63.9383 106.511L59.9773 107.653ZM66.1272 113.664L66.1733 109.542L66.1272 109.541L66.0811 109.542L66.1272 113.664ZM72.2771 107.653H68.1549V107.677L68.1552 107.701L72.2771 107.653ZM51.7997 41.5292C51.7997 39.2525 49.9541 37.4069 47.6774 37.4069C45.4008 37.4069 43.5552 39.2525 43.5552 41.5292H47.6774H51.7997ZM47.6774 107.653L51.7994 107.701L51.7997 107.677V107.653H47.6774ZM53.8274 113.664L53.8735 109.542L53.8274 109.541L53.7813 109.542L53.8274 113.664ZM50.8533 109.029C51.1876 111.281 53.2841 112.835 55.5361 112.501C57.7881 112.167 59.3426 110.07 59.0083 107.818L54.9308 108.423L50.8533 109.029ZM47.6775 59.5629L51.755 58.9576L43.5556 59.6129L47.6775 59.5629ZM41.5276 65.5741L41.5754 61.4521L41.5276 61.4516L41.4797 61.4521L41.5276 65.5741ZM35.3777 59.5629L39.4996 59.6129L39.4999 59.5879V59.5629H35.3777ZM47.6775 25.4992V21.377V25.4992ZM84.577 37.5217H88.6992H84.577ZM84.577 59.5629H80.4547V59.5879L80.455 59.6129L84.577 59.5629ZM78.427 65.5741L78.4749 61.4521L78.427 61.4516L78.3792 61.4521L78.427 65.5741ZM72.2771 59.5629L76.3991 59.6129L76.3994 59.5879V59.5629L72.2771 59.5629ZM56.8231 96.7092L52.7387 96.152L52.621 97.0145L52.8621 97.8509L56.8231 96.7092ZM59.9773 107.653L55.8553 107.604C55.8395 108.959 56.1009 110.301 56.6217 111.55L60.4265 109.964L64.2313 108.378C64.1406 108.16 64.0965 107.93 64.0992 107.701L59.9773 107.653ZM60.4265 109.964L56.6217 111.55C57.1425 112.799 57.9107 113.927 58.8765 114.871L61.7579 111.924L64.6393 108.976C64.4592 108.8 64.3221 108.595 64.2313 108.378L60.4265 109.964ZM61.7579 111.924L58.8765 114.871C59.842 115.815 60.9855 116.556 62.2373 117.054L63.7628 113.225L65.2883 109.395C65.0395 109.296 64.8197 109.152 64.6393 108.976L61.7579 111.924ZM63.7628 113.225L62.2373 117.054C63.4891 117.553 64.827 117.801 66.1733 117.786L66.1272 113.664L66.0811 109.542C65.807 109.545 65.5372 109.494 65.2883 109.395L63.7628 113.225ZM66.1272 113.664L66.0811 117.786C67.4274 117.801 68.7653 117.553 70.017 117.054L68.4916 113.225L66.9661 109.395C66.7172 109.494 66.4474 109.545 66.1733 109.542L66.1272 113.664ZM68.4916 113.225L70.017 117.054C71.2689 116.556 72.4124 115.815 73.3779 114.871L70.4965 111.924L67.6151 108.976C67.4347 109.152 67.2149 109.296 66.9661 109.395L68.4916 113.225ZM70.4965 111.924L73.3779 114.871C74.3436 113.927 75.1119 112.799 75.6326 111.55L71.8279 109.964L68.0231 108.378C67.9323 108.595 67.7952 108.8 67.6151 108.976L70.4965 111.924ZM71.8279 109.964L75.6326 111.55C76.1535 110.301 76.4149 108.959 76.399 107.604L72.2771 107.653L68.1552 107.701C68.1578 107.93 68.1138 108.16 68.0231 108.378L71.8279 109.964ZM72.2771 107.653H76.3993V37.5217H72.2771H68.1549V107.653H72.2771ZM47.6774 41.5292H43.5552V107.653H47.6774H51.7997V41.5292H47.6774ZM47.6774 107.653L43.5555 107.604C43.5396 108.959 43.8011 110.301 44.3219 111.55L48.1267 109.964L51.9315 108.378C51.8408 108.16 51.7967 107.93 51.7994 107.701L47.6774 107.653ZM48.1267 109.964L44.3219 111.55C44.8427 112.799 45.6109 113.927 46.5766 114.871L49.4581 111.924L52.3395 108.976C52.1593 108.8 52.0223 108.595 51.9315 108.378L48.1267 109.964ZM49.4581 111.924L46.5766 114.871C47.5421 115.815 48.6856 116.556 49.9375 117.054L51.463 113.225L52.9884 109.395C52.7396 109.296 52.5198 109.152 52.3395 108.976L49.4581 111.924ZM51.463 113.225L49.9375 117.054C51.1893 117.553 52.5271 117.801 53.8735 117.786L53.8274 113.664L53.7813 109.542C53.5072 109.545 53.2373 109.494 52.9884 109.395L51.463 113.225ZM53.8274 113.664L53.7813 117.786C55.1276 117.801 56.4655 117.553 57.7172 117.054L56.1918 113.225L54.6663 109.395C54.4174 109.494 54.1475 109.545 53.8735 109.542L53.8274 113.664ZM56.1918 113.225L57.7172 117.054C58.9691 116.556 60.1126 115.815 61.0781 114.871L58.1967 111.924L55.3152 108.976C55.1349 109.152 54.9151 109.296 54.6663 109.395L56.1918 113.225ZM58.1967 111.924L61.0781 114.871C62.0438 113.927 62.8121 112.799 63.3328 111.55L59.528 109.964L55.7232 108.378C55.6324 108.595 55.4954 108.8 55.3152 108.976L58.1967 111.924ZM59.528 109.964L63.3328 111.55C63.8536 110.301 64.1151 108.959 64.0992 107.604L59.9773 107.653L55.8553 107.701C55.858 107.93 55.814 108.16 55.7232 108.378L59.528 109.964ZM54.9308 108.423L59.0083 107.818L51.755 58.9576L47.6775 59.5629L43.5999 60.1682L50.8533 109.029L54.9308 108.423ZM47.6775 59.5629L43.5556 59.6129C43.5583 59.842 43.5144 60.0715 43.4238 60.2889L47.2289 61.8743L51.0341 63.4598C51.5548 62.2101 51.8159 60.8678 51.7994 59.5128L47.6775 59.5629ZM47.2289 61.8743L43.4238 60.2889C43.3331 60.5065 43.1962 60.7106 43.0162 60.8865L45.8977 63.8344L48.7791 66.7823C49.7451 65.8381 50.5134 64.7093 51.0341 63.4598L47.2289 61.8743ZM45.8977 63.8344L43.0162 60.8865C42.836 61.0627 42.6164 61.2068 42.3677 61.3058L43.8924 65.1357L45.417 68.9656C46.6694 68.467 47.8133 67.7263 48.7791 66.7823L45.8977 63.8344ZM43.8924 65.1357L42.3677 61.3058C42.1189 61.4048 41.8493 61.4553 41.5754 61.4521L41.5276 65.5741L41.4797 69.696C42.8264 69.7117 44.1648 69.4641 45.417 68.9656L43.8924 65.1357ZM41.5276 65.5741L41.4797 61.4521C41.2059 61.4553 40.9362 61.4048 40.6874 61.3058L39.1628 65.1357L37.6381 68.9656C38.8903 69.4641 40.2287 69.7117 41.5754 69.696L41.5276 65.5741ZM39.1628 65.1357L40.6874 61.3058C40.4388 61.2068 40.2191 61.0627 40.0389 60.8865L37.1575 63.8344L34.2761 66.7823C35.2418 67.7263 36.3858 68.467 37.6381 68.9656L39.1628 65.1357ZM37.1575 63.8344L40.0389 60.8865C39.8589 60.7106 39.722 60.5065 39.6313 60.2889L35.8262 61.8743L32.0211 63.4598C32.5417 64.7093 33.31 65.8381 34.2761 66.7823L37.1575 63.8344ZM35.8262 61.8743L39.6313 60.2889C39.5407 60.0715 39.4968 59.842 39.4996 59.6129L35.3777 59.5629L31.2557 59.5128C31.2393 60.8678 31.5003 62.2101 32.0211 63.4598L35.8262 61.8743ZM35.3777 59.5629H39.4999V37.5217H35.3777H31.2554V59.5629H35.3777ZM35.3777 37.5217H39.4999C39.4999 35.4571 40.3381 33.4576 41.8616 31.9684L38.9802 29.0205L36.0988 26.0726C33.009 29.0927 31.2554 33.2091 31.2554 37.5217H35.3777ZM38.9802 29.0205L41.8616 31.9684C43.3884 30.4761 45.4787 29.6214 47.6775 29.6214V25.4992V21.377C43.352 21.377 39.1853 23.0556 36.0988 26.0726L38.9802 29.0205ZM47.6775 25.4992V29.6214H72.2771V25.4992V21.377H47.6775V25.4992ZM72.2771 25.4992V29.6214C74.4759 29.6214 76.5662 30.4761 78.093 31.9684L80.9744 29.0205L83.8559 26.0726C80.7693 23.0556 76.6026 21.377 72.2771 21.377V25.4992ZM80.9744 29.0205L78.093 31.9684C79.6166 33.4576 80.4547 35.4571 80.4547 37.5217H84.577H88.6992C88.6992 33.2091 86.9456 29.0927 83.8559 26.0726L80.9744 29.0205ZM84.577 37.5217H80.4547V59.5629H84.577H88.6992V37.5217H84.577ZM84.577 59.5629L80.455 59.6129C80.4578 59.842 80.4139 60.0715 80.3233 60.2889L84.1284 61.8743L87.9336 63.4598C88.4543 62.2101 88.7153 60.8678 88.6989 59.5128L84.577 59.5629ZM84.1284 61.8743L80.3233 60.2889C80.2326 60.5065 80.0957 60.7106 79.9157 60.8865L82.7971 63.8344L85.6786 66.7823C86.6446 65.8381 87.4129 64.7093 87.9336 63.4598L84.1284 61.8743ZM82.7971 63.8344L79.9157 60.8865C79.7355 61.0626 79.5159 61.2068 79.2672 61.3058L80.7919 65.1357L82.3165 68.9656C83.5688 68.467 84.7128 67.7263 85.6786 66.7823L82.7971 63.8344ZM80.7919 65.1357L79.2672 61.3058C79.0184 61.4048 78.7487 61.4553 78.4749 61.4521L78.427 65.5741L78.3792 69.696C79.7259 69.7117 81.0643 69.4641 82.3165 68.9656L80.7919 65.1357ZM78.427 65.5741L78.3792 61.4521C78.1054 61.4553 77.8357 61.4048 77.5869 61.3058L76.0622 65.1357L74.5376 68.9656C75.7898 69.4641 77.1282 69.7117 78.4749 69.696L78.427 65.5741ZM76.0622 65.1357L77.5869 61.3058C77.3382 61.2068 77.1186 61.0626 76.9384 60.8865L74.057 63.8344L71.1755 66.7823C72.1413 67.7263 73.2853 68.467 74.5376 68.9656L76.0622 65.1357ZM74.057 63.8344L76.9384 60.8865C76.7584 60.7106 76.6215 60.5065 76.5308 60.2889L72.7257 61.8743L68.9205 63.4598C69.4412 64.7093 70.2095 65.8381 71.1755 66.7823L74.057 63.8344ZM72.7257 61.8743L76.5308 60.2889C76.4402 60.0715 76.3963 59.842 76.3991 59.6129L72.2771 59.5629L68.1552 59.5128C68.1387 60.8678 68.3998 62.2101 68.9205 63.4598L72.7257 61.8743ZM72.2771 59.5629L76.3994 59.5629L76.3993 37.5217L72.2771 37.5217L68.1549 37.5217L68.1549 59.5629L72.2771 59.5629ZM59.9773 73.5891L55.8929 73.0319L52.7387 96.152L56.8231 96.7092L60.9075 97.2664L64.0617 74.1463L59.9773 73.5891ZM56.8231 96.7092L52.8621 97.8509L56.0163 108.794L59.9773 107.653L63.9383 106.511L60.7841 95.5676L56.8231 96.7092Z" fill="#4AC364" mask="url(#path-1-inside-1_0_31)"/>
</g>
<path id="Vector_2" d="M59.9774 1.81374C64.4998 1.81382 68.1658 5.47975 68.1658 10.0022C68.1658 14.5246 64.4998 18.1906 59.9774 18.1907C55.4549 18.1907 51.789 14.5247 51.7889 10.0022C51.7889 5.4797 55.4548 1.81374 59.9774 1.81374Z" fill="#4AC364" stroke="#4AC364" stroke-width="4.12222" stroke-miterlimit="10" stroke-linecap="round"/>
</g>
<defs>
<clipPath id="clip0_0_31">
<rect width="119.953" height="119.953" fill="white"/>
</clipPath>
</defs>
</svg>
